MutatorSansInstance_800-700.ufo
<glyph name="comma" format="2">
  <advance width="285"/>
  <unicode hex="002C"/>
  <outline>
    <contour>
      <point x="223" y="0" type="line"/>
      <point x="223" y="278" type="line"/>
      <point x="61" y="278" type="line"/>
      <point x="61" y="0" type="line"/>
      <point x="131" y="-14" type="line"/>
      <point x="122" y="12" type="line"/>
      <point x="100" y="-133" type="line"/>
      <point x="160" y="-135" type="line"/>
    </contour>
  </outline>
</glyph>
<glyph name="A" format="2">
  <advance width="1092"/>
  <unicode hex="0041"/>
  <outline>
    <contour>
      <point x="23" y="0" type="line"/>
      <point x="275" y="0" type="line"/>
      <point x="537" y="780" type="line"/>
      <point x="322" y="780" type="line"/>
    </contour>
    <contour>
      <point x="184" y="137" type="line"/>
      <point x="819" y="137" type="line"/>
      <point x="819" y="317" type="line"/>
      <point x="184" y="317" type="line"/>
    </contour>
    <contour>
      <point x="715" y="0" type="line"/>
      <point x="1070" y="0" type="line"/>
      <point x="771" y="780" type="line"/>
      <point x="433" y="780" type="line"/>
    </contour>
    <contour>
      <point x="370" y="565" type="line"/>
      <point x="681" y="565" type="line"/>
      <point x="681" y="780" type="line"/>
      <point x="370" y="780" type="line"/>
    </contour>
  </outline>
</glyph>
<glyph name="B" format="2">
  <advance width="1089"/>
  <unicode hex="0042"/>
  <outline>
    <contour>
      <point x="61" y="0" type="line"/>
      <point x="379" y="0" type="line"/>
      <point x="379" y="781" type="line"/>
      <point x="61" y="781" type="line"/>
    </contour>
    <contour>
      <point x="344" y="339" type="line"/>
      <point x="657" y="339" type="line" smooth="yes"/>
      <point x="710" y="339"/>
      <point x="745" y="320"/>
      <point x="745" y="267" type="curve" smooth="yes"/>
      <point x="745" y="218"/>
      <point x="710" y="198"/>
      <point x="656" y="198" type="curve" smooth="yes"/>
      <point x="344" y="198" type="line"/>
      <point x="344" y="0" type="line"/>
      <point x="764" y="0" type="line" smooth="yes"/>
      <point x="999" y="0"/>
      <point x="1062" y="92"/>
      <point x="1062" y="221" type="curve" smooth="yes"/>
      <point x="1062" y="339"/>
      <point x="997" y="403"/>
      <point x="897" y="420" type="curve"/>
      <point x="876" y="371" type="line"/>
      <point x="956" y="388"/>
      <point x="1033" y="443"/>
      <point x="1033" y="554" type="curve" smooth="yes"/>
      <point x="1033" y="692"/>
      <point x="955" y="780"/>
      <point x="718" y="780" type="curve" smooth="yes"/>
      <point x="344" y="780" type="line"/>
      <point x="344" y="592" type="line"/>
      <point x="625" y="592" type="line" smooth="yes"/>
      <point x="684" y="592"/>
      <point x="718" y="572"/>
      <point x="718" y="525" type="curve" smooth="yes"/>
      <point x="718" y="467"/>
      <point x="684" y="455"/>
      <point x="625" y="455" type="curve" smooth="yes"/>
      <point x="344" y="455" type="line"/>
    </contour>
  </outline>
</glyph>
<glyph name="C" format="2">
  <advance width="1179"/>
  <unicode hex="0043"/>
  <outline>
    <contour>
      <point x="820" y="348" type="line"/>
      <point x="805" y="248"/>
      <point x="735" y="208"/>
      <point x="626" y="208" type="curve" smooth="yes"/>
      <point x="564" y="208" type="line" smooth="yes"/>
      <point x="442" y="208"/>
      <point x="369" y="262"/>
      <point x="369" y="393" type="curve" smooth="yes"/>
      <point x="369" y="520"/>
      <point x="442" y="572"/>
      <point x="564" y="572" type="curve" smooth="yes"/>
      <point x="626" y="572" type="line" smooth="yes"/>
      <point x="734" y="572"/>
      <point x="804" y="534"/>
      <point x="820" y="439" type="curve"/>
      <point x="1137" y="472" type="line"/>
      <point x="1102" y="688"/>
      <point x="924" y="790"/>
      <point x="657" y="790" type="curve" smooth="yes"/>
      <point x="532" y="790" type="line" smooth="yes"/>
      <point x="230" y="790"/>
      <point x="41" y="663"/>
      <point x="41" y="393" type="curve" smooth="yes"/>
      <point x="41" y="120"/>
      <point x="230" y="-10"/>
      <point x="532" y="-10" type="curve" smooth="yes"/>
      <point x="657" y="-10" type="line" smooth="yes"/>
      <point x="925" y="-10"/>
      <point x="1104" y="95"/>
      <point x="1138" y="316" type="curve"/>
    </contour>
  </outline>
</glyph>
<glyph name="D" format="2">
  <advance width="1062"/>
  <unicode hex="0044"/>
  <outline>
    <contour>
      <point x="61" y="0" type="line"/>
      <point x="374" y="0" type="line"/>
      <point x="374" y="780" type="line"/>
      <point x="61" y="780" type="line"/>
    </contour>
    <contour>
      <point x="329" y="570" type="line"/>
      <point x="496" y="570" type="line" smooth="yes"/>
      <point x="620" y="570"/>
      <point x="694" y="520"/>
      <point x="694" y="393" type="curve" smooth="yes"/>
      <point x="694" y="262"/>
      <point x="620" y="210"/>
      <point x="496" y="210" type="curve" smooth="yes"/>
      <point x="327" y="210" type="line"/>
      <point x="327" y="0" type="line"/>
      <point x="527" y="0" type="line" smooth="yes"/>
      <point x="830" y="0"/>
      <point x="1021" y="121"/>
      <point x="1021" y="393" type="curve" smooth="yes"/>
      <point x="1021" y="662"/>
      <point x="830" y="780"/>
      <point x="527" y="780" type="curve" smooth="yes"/>
      <point x="329" y="780" type="line"/>
    </contour>
  </outline>
</glyph>
<glyph name="E" format="2">
  <advance width="998"/>
  <unicode hex="0045"/>
  <anchor x="488" y="822" name="top"/>
  <outline>
    <contour>
      <point x="64" y="0" type="line"/>
      <point x="376" y="0" type="line"/>
      <point x="376" y="780" type="line"/>
      <point x="64" y="780" type="line"/>
    </contour>
    <contour>
      <point x="140" y="557" type="line"/>
      <point x="938" y="557" type="line"/>
      <point x="938" y="780" type="line"/>
      <point x="140" y="780" type="line"/>
    </contour>
    <contour>
      <point x="140" y="0" type="line"/>
      <point x="938" y="0" type="line"/>
      <point x="938" y="223" type="line"/>
      <point x="140" y="223" type="line"/>
    </contour>
    <contour>
      <point x="140" y="319" type="line"/>
      <point x="792" y="319" type="line"/>
      <point x="792" y="462" type="line"/>
      <point x="140" y="462" type="line"/>
    </contour>
  </outline>
</glyph>
<glyph name="F" format="2">
  <advance width="997"/>
  <unicode hex="0046"/>
  <outline>
    <contour>
      <point x="61" y="0" type="line"/>
      <point x="381" y="0" type="line"/>
      <point x="381" y="780" type="line"/>
      <point x="61" y="780" type="line"/>
    </contour>
    <contour>
      <point x="140" y="562" type="line"/>
      <point x="936" y="562" type="line"/>
      <point x="936" y="780" type="line"/>
      <point x="140" y="780" type="line"/>
    </contour>
    <contour>
      <point x="140" y="258" type="line"/>
      <point x="865" y="258" type="line"/>
      <point x="865" y="444" type="line"/>
      <point x="140" y="444" type="line"/>
    </contour>
  </outline>
</glyph>
<glyph name="G" format="2">
  <advance width="1211"/>
  <unicode hex="0047"/>
  <outline>
    <contour>
      <point x="540" y="310" type="line"/>
      <point x="845" y="310" type="line"/>
      <point x="845" y="216" type="line"/>
      <point x="984" y="0" type="line"/>
      <point x="1152" y="0" type="line"/>
      <point x="1152" y="400" type="line"/>
      <point x="540" y="400" type="line"/>
    </contour>
    <contour>
      <point x="832" y="355" type="line"/>
      <point x="816" y="253"/>
      <point x="745" y="208"/>
      <point x="633" y="208" type="curve" smooth="yes"/>
      <point x="564" y="208" type="line" smooth="yes"/>
      <point x="442" y="208"/>
      <point x="369" y="262"/>
      <point x="369" y="393" type="curve" smooth="yes"/>
      <point x="369" y="520"/>
      <point x="443" y="572"/>
      <point x="568" y="572" type="curve" smooth="yes"/>
      <point x="637" y="572" type="line" smooth="yes"/>
      <point x="746" y="572"/>
      <point x="815" y="534"/>
      <point x="832" y="439" type="curve"/>
      <point x="1142" y="472" type="line"/>
      <point x="1106" y="688"/>
      <point x="930" y="790"/>
      <point x="665" y="790" type="curve" smooth="yes"/>
      <point x="532" y="790" type="line" smooth="yes"/>
      <point x="231" y="790"/>
      <point x="41" y="663"/>
      <point x="41" y="393" type="curve" smooth="yes"/>
      <point x="41" y="120"/>
      <point x="230" y="-10"/>
      <point x="532" y="-10" type="curve" smooth="yes"/>
      <point x="563" y="-10" type="line" smooth="yes"/>
      <point x="830" y="-10"/>
      <point x="1006" y="101"/>
      <point x="1039" y="323" type="curve"/>
    </contour>
  </outline>
</glyph>
<glyph name="H" format="2">
  <advance width="1129"/>
  <unicode hex="0048"/>
  <outline>
    <contour>
      <point x="61" y="0" type="line"/>
      <point x="381" y="0" type="line"/>
      <point x="381" y="780" type="line"/>
      <point x="61" y="780" type="line"/>
    </contour>
    <contour>
      <point x="187" y="280" type="line"/>
      <point x="943" y="280" type="line"/>
      <point x="943" y="496" type="line"/>
      <point x="187" y="496" type="line"/>
    </contour>
    <contour>
      <point x="748" y="0" type="line"/>
      <point x="1068" y="0" type="line"/>
      <point x="1068" y="780" type="line"/>
      <point x="748" y="780" type="line"/>
    </contour>
  </outline>
</glyph>
<glyph name="I" format="2">
  <advance width="855"/>
  <unicode hex="0049"/>
  <outline>
    <contour>
      <point x="268" y="0" type="line"/>
      <point x="588" y="0" type="line"/>
      <point x="588" y="780" type="line"/>
      <point x="268" y="780" type="line"/>
    </contour>
    <contour>
      <point x="61" y="554" type="line"/>
      <point x="794" y="554" type="line"/>
      <point x="794" y="780" type="line"/>
      <point x="61" y="780" type="line"/>
    </contour>
    <contour>
      <point x="61" y="0" type="line"/>
      <point x="794" y="0" type="line"/>
      <point x="794" y="226" type="line"/>
      <point x="61" y="226" type="line"/>
    </contour>
  </outline>
</glyph>
<glyph name="J" format="2">
  <advance width="801"/>
  <unicode hex="004A"/>
  <outline>
    <contour>
      <point x="227" y="-10" type="curve" smooth="yes"/>
      <point x="543" y="-10"/>
      <point x="740" y="118"/>
      <point x="740" y="387" type="curve" smooth="yes"/>
      <point x="740" y="780" type="line"/>
      <point x="414" y="780" type="line"/>
      <point x="414" y="420" type="line" smooth="yes"/>
      <point x="414" y="286"/>
      <point x="340" y="230"/>
      <point x="219" y="230" type="curve" smooth="yes"/>
      <point x="190" y="230"/>
      <point x="146" y="232"/>
      <point x="100" y="241" type="curve"/>
      <point x="61" y="6" type="line"/>
      <point x="112" y="-5"/>
      <point x="168" y="-10"/>
    </contour>
  </outline>
</glyph>
<glyph name="K" format="2">
  <advance width="1102"/>
  <unicode hex="004B"/>
  <outline>
    <contour>
      <point x="61" y="0" type="line"/>
      <point x="381" y="0" type="line"/>
      <point x="381" y="780" type="line"/>
      <point x="61" y="780" type="line"/>
    </contour>
    <contour>
      <point x="282" y="311" type="line"/>
      <point x="400" y="311" type="line"/>
      <point x="674" y="0" type="line"/>
      <point x="1076" y="0" type="line"/>
      <point x="663" y="494" type="line"/>
      <point x="406" y="430" type="line"/>
      <point x="282" y="430" type="line"/>
    </contour>
    <contour>
      <point x="382" y="406" type="line"/>
      <point x="566" y="317" type="line"/>
      <point x="1066" y="780" type="line"/>
      <point x="704" y="780" type="line"/>
    </contour>
  </outline>
</glyph>
<glyph name="L" format="2">
  <advance width="889"/>
  <unicode hex="004C"/>
  <outline>
    <contour>
      <point x="61" y="0" type="line"/>
      <point x="381" y="0" type="line"/>
      <point x="381" y="780" type="line"/>
      <point x="61" y="780" type="line"/>
    </contour>
    <contour>
      <point x="140" y="0" type="line"/>
      <point x="866" y="0" type="line"/>
      <point x="866" y="224" type="line"/>
      <point x="140" y="224" type="line"/>
    </contour>
  </outline>
</glyph>
<glyph name="M" format="2">
  <advance width="1134"/>
  <unicode hex="004D"/>
  <outline>
    <contour>
      <point x="61" y="0" type="line"/>
      <point x="308" y="0" type="line"/>
      <point x="308" y="780" type="line"/>
      <point x="61" y="780" type="line"/>
    </contour>
    <contour>
      <point x="1073" y="0" type="line"/>
      <point x="1073" y="780" type="line"/>
      <point x="826" y="780" type="line"/>
      <point x="826" y="0" type="line"/>
    </contour>
    <contour>
      <point x="927" y="461" type="line"/>
      <point x="826" y="780" type="line"/>
      <point x="546" y="496" type="line"/>
      <point x="588" y="496" type="line"/>
      <point x="308" y="780" type="line"/>
      <point x="207" y="461" type="line"/>
      <point x="517" y="156" type="line"/>
      <point x="618" y="156" type="line"/>
    </contour>
  </outline>
</glyph>
<glyph name="N" format="2">
  <advance width="1120"/>
  <unicode hex="004E"/>
  <outline>
    <contour>
      <point x="61" y="0" type="line"/>
      <point x="308" y="0" type="line"/>
      <point x="308" y="780" type="line"/>
      <point x="61" y="780" type="line"/>
    </contour>
    <contour>
      <point x="196" y="511" type="line"/>
      <point x="812" y="0" type="line"/>
      <point x="924" y="269" type="line"/>
      <point x="308" y="780" type="line"/>
    </contour>
    <contour>
      <point x="812" y="0" type="line"/>
      <point x="1059" y="0" type="line"/>
      <point x="1059" y="780" type="line"/>
      <point x="812" y="780" type="line"/>
    </contour>
  </outline>
</glyph>
<glyph name="O" format="2">
  <advance width="1191"/>
  <unicode hex="004F"/>
  <outline>
    <contour>
      <point x="532" y="-10" type="curve" smooth="yes"/>
      <point x="659" y="-10" type="line" smooth="yes"/>
      <point x="960" y="-10"/>
      <point x="1150" y="120"/>
      <point x="1150" y="393" type="curve" smooth="yes"/>
      <point x="1150" y="663"/>
      <point x="960" y="790"/>
      <point x="659" y="790" type="curve" smooth="yes"/>
      <point x="532" y="790" type="line" smooth="yes"/>
      <point x="230" y="790"/>
      <point x="41" y="663"/>
      <point x="41" y="393" type="curve" smooth="yes"/>
      <point x="41" y="120"/>
      <point x="230" y="-10"/>
    </contour>
    <contour>
      <point x="564" y="208" type="line" smooth="yes"/>
      <point x="442" y="208"/>
      <point x="369" y="262"/>
      <point x="369" y="393" type="curve" smooth="yes"/>
      <point x="369" y="520"/>
      <point x="442" y="572"/>
      <point x="564" y="572" type="curve" smooth="yes"/>
      <point x="628" y="572" type="line" smooth="yes"/>
      <point x="750" y="572"/>
      <point x="823" y="520"/>
      <point x="823" y="393" type="curve" smooth="yes"/>
      <point x="823" y="262"/>
      <point x="750" y="208"/>
      <point x="628" y="208" type="curve" smooth="yes"/>
    </contour>
  </outline>
</glyph>
<glyph name="P" format="2">
  <advance width="1030"/>
  <unicode hex="0050"/>
  <outline>
    <contour>
      <point x="61" y="0" type="line"/>
      <point x="381" y="0" type="line"/>
      <point x="381" y="780" type="line"/>
      <point x="61" y="780" type="line"/>
    </contour>
    <contour>
      <point x="265" y="551" type="line"/>
      <point x="590" y="551" type="line" smooth="yes"/>
      <point x="682" y="551"/>
      <point x="716" y="524"/>
      <point x="716" y="458" type="curve" smooth="yes"/>
      <point x="716" y="387"/>
      <point x="682" y="363"/>
      <point x="590" y="363" type="curve" smooth="yes"/>
      <point x="265" y="363" type="line"/>
      <point x="265" y="133" type="line"/>
      <point x="574" y="133" type="line" smooth="yes"/>
      <point x="903" y="133"/>
      <point x="1007" y="246"/>
      <point x="1007" y="458" type="curve" smooth="yes"/>
      <point x="1007" y="668"/>
      <point x="903" y="780"/>
      <point x="575" y="780" type="curve" smooth="yes"/>
      <point x="265" y="780" type="line"/>
    </contour>
  </outline>
</glyph>
<glyph name="Q" format="2">
  <advance width="1191"/>
  <unicode hex="0051"/>
  <outline>
    <contour>
      <point x="531" y="-130" type="line"/>
      <point x="849" y="-130" type="line"/>
      <point x="725" y="139" type="line"/>
      <point x="415" y="135" type="line"/>
    </contour>
    <component base="O"/>
  </outline>
</glyph>
<glyph name="R" format="2">
  <advance width="1042"/>
  <unicode hex="0052"/>
  <outline>
    <contour>
      <point x="669" y="0" type="line"/>
      <point x="1000" y="0" type="line"/>
      <point x="939" y="119" type="line" smooth="yes"/>
      <point x="898" y="183"/>
      <point x="851" y="228"/>
      <point x="773" y="228" type="curve"/>
      <point x="559" y="228" type="line"/>
    </contour>
    <contour>
      <point x="61" y="0" type="line"/>
      <point x="381" y="0" type="line"/>
      <point x="381" y="780" type="line"/>
      <point x="61" y="780" type="line"/>
    </contour>
    <contour>
      <point x="265" y="551" type="line"/>
      <point x="593" y="551" type="line" smooth="yes"/>
      <point x="684" y="551"/>
      <point x="718" y="524"/>
      <point x="718" y="458" type="curve" smooth="yes"/>
      <point x="718" y="387"/>
      <point x="684" y="363"/>
      <point x="593" y="363" type="curve" smooth="yes"/>
      <point x="265" y="363" type="line"/>
      <point x="265" y="182" type="line"/>
      <point x="579" y="182" type="line" smooth="yes"/>
      <point x="903" y="182"/>
      <point x="1009" y="286"/>
      <point x="1009" y="482" type="curve" smooth="yes"/>
      <point x="1009" y="676"/>
      <point x="901" y="780"/>
      <point x="577" y="780" type="curve" smooth="yes"/>
      <point x="265" y="780" type="line"/>
    </contour>
  </outline>
</glyph>
<glyph name="S" format="2">
  <advance width="1046"/>
  <unicode hex="0053"/>
  <outline>
    <contour>
      <point x="1006" y="239" type="curve" smooth="yes"/>
      <point x="1006" y="428"/>
      <point x="896" y="486"/>
      <point x="623" y="498" type="curve" smooth="yes"/>
      <point x="469" y="505" type="line" smooth="yes"/>
      <point x="341" y="512"/>
      <point x="313" y="521"/>
      <point x="313" y="548" type="curve" smooth="yes"/>
      <point x="313" y="574"/>
      <point x="348" y="588"/>
      <point x="452" y="588" type="curve" smooth="yes"/>
      <point x="584" y="588" type="line" smooth="yes"/>
      <point x="719" y="588"/>
      <point x="842" y="574"/>
      <point x="935" y="557" type="curve"/>
      <point x="967" y="750" type="line"/>
      <point x="875" y="770"/>
      <point x="722" y="790"/>
      <point x="622" y="790" type="curve" smooth="yes"/>
      <point x="534" y="790" type="line" smooth="yes"/>
      <point x="188" y="790"/>
      <point x="47" y="706"/>
      <point x="47" y="528" type="curve" smooth="yes"/>
      <point x="47" y="358"/>
      <point x="175" y="296"/>
      <point x="431" y="284" type="curve" smooth="yes"/>
      <point x="578" y="276" type="line" smooth="yes"/>
      <point x="699" y="268"/>
      <point x="733" y="263"/>
      <point x="733" y="233" type="curve" smooth="yes"/>
      <point x="733" y="207"/>
      <point x="696" y="193"/>
      <point x="583" y="193" type="curve" smooth="yes"/>
      <point x="458" y="193" type="line" smooth="yes"/>
      <point x="311" y="193"/>
      <point x="177" y="206"/>
      <point x="74" y="225" type="curve"/>
      <point x="42" y="30" type="line"/>
      <point x="148" y="9"/>
      <point x="313" y="-10"/>
      <point x="422" y="-10" type="curve" smooth="yes"/>
      <point x="519" y="-10" type="line" smooth="yes"/>
      <point x="892" y="-10"/>
      <point x="1006" y="91"/>
    </contour>
  </outline>
</glyph>
<glyph name="T" format="2">
  <advance width="1040"/>
  <unicode hex="0054"/>
  <outline>
    <contour>
      <point x="360" y="0" type="line"/>
      <point x="680" y="0" type="line"/>
      <point x="680" y="780" type="line"/>
      <point x="360" y="780" type="line"/>
    </contour>
    <contour>
      <point x="23" y="539" type="line"/>
      <point x="1017" y="539" type="line"/>
      <point x="1017" y="780" type="line"/>
      <point x="23" y="780" type="line"/>
    </contour>
  </outline>
</glyph>
<glyph name="U" format="2">
  <advance width="1118"/>
  <unicode hex="0055"/>
  <outline>
    <contour>
      <point x="558" y="-10" type="curve" smooth="yes"/>
      <point x="863" y="-10"/>
      <point x="1040" y="118"/>
      <point x="1040" y="385" type="curve" smooth="yes"/>
      <point x="1040" y="780" type="line"/>
      <point x="714" y="780" type="line"/>
      <point x="714" y="373" type="line" smooth="yes"/>
      <point x="714" y="268"/>
      <point x="655" y="225"/>
      <point x="559" y="225" type="curve" smooth="yes"/>
      <point x="463" y="225"/>
      <point x="405" y="268"/>
      <point x="405" y="373" type="curve" smooth="yes"/>
      <point x="405" y="780" type="line"/>
      <point x="78" y="780" type="line"/>
      <point x="78" y="385" type="line" smooth="yes"/>
      <point x="78" y="118"/>
      <point x="253" y="-10"/>
    </contour>
  </outline>
</glyph>
<glyph name="V" format="2">
  <advance width="1105"/>
  <unicode hex="0056"/>
  <outline>
    <contour>
      <point x="1084" y="780" type="line"/>
      <point x="830" y="780" type="line"/>
      <point x="547" y="0" type="line"/>
      <point x="766" y="0" type="line"/>
    </contour>
    <contour>
      <point x="376" y="780" type="line"/>
      <point x="20" y="780" type="line"/>
      <point x="335" y="0" type="line"/>
      <point x="673" y="0" type="line"/>
    </contour>
    <contour>
      <point x="728" y="215" type="line"/>
      <point x="415" y="215" type="line"/>
      <point x="415" y="0" type="line"/>
      <point x="728" y="0" type="line"/>
    </contour>
  </outline>
</glyph>
<glyph name="W" format="2">
  <advance width="1202"/>
  <unicode hex="0057"/>
  <outline>
    <contour>
      <point x="1181" y="780" type="line"/>
      <point x="899" y="780" type="line"/>
      <point x="799" y="228" type="line"/>
      <point x="825" y="228" type="line"/>
      <point x="722" y="780" type="line"/>
      <point x="513" y="780" type="line"/>
      <point x="418" y="227" type="line"/>
      <point x="444" y="227" type="line"/>
      <point x="341" y="780" type="line"/>
      <point x="21" y="780" type="line"/>
      <point x="185" y="0" type="line"/>
      <point x="507" y="0" type="line"/>
      <point x="604" y="491" type="line"/>
      <point x="555" y="491" type="line"/>
      <point x="667" y="0" type="line"/>
      <point x="1021" y="0" type="line"/>
    </contour>
  </outline>
</glyph>
<glyph name="X" format="2">
  <advance width="1064"/>
  <unicode hex="0058"/>
  <outline>
    <contour>
      <point x="667" y="0" type="line"/>
      <point x="1043" y="0" type="line"/>
      <point x="659" y="455" type="line"/>
      <point x="399" y="780" type="line"/>
      <point x="22" y="780" type="line"/>
      <point x="391" y="363" type="line"/>
    </contour>
    <contour>
      <point x="21" y="0" type="line"/>
      <point x="337" y="0" type="line"/>
      <point x="539" y="324" type="line"/>
      <point x="667" y="332" type="line"/>
      <point x="1041" y="780" type="line"/>
      <point x="725" y="780" type="line"/>
      <point x="512" y="472" type="line"/>
      <point x="379" y="460" type="line"/>
    </contour>
  </outline>
</glyph>
<glyph name="Y" format="2">
  <advance width="1019"/>
  <unicode hex="0059"/>
  <outline>
    <contour>
      <point x="1000" y="780" type="line"/>
      <point x="739" y="780" type="line"/>
      <point x="460" y="206" type="line"/>
      <point x="668" y="202" type="line"/>
    </contour>
    <contour>
      <point x="353" y="780" type="line"/>
      <point x="19" y="780" type="line"/>
      <point x="350" y="202" type="line"/>
      <point x="644" y="206" type="line"/>
    </contour>
    <contour>
      <point x="670" y="322" type="line"/>
      <point x="350" y="322" type="line"/>
      <point x="350" y="0" type="line"/>
      <point x="670" y="0" type="line"/>
    </contour>
  </outline>
</glyph>
<glyph name="Z" format="2">
  <advance width="1065"/>
  <unicode hex="005A"/>
  <outline>
    <contour>
      <point x="61" y="224" type="line"/>
      <point x="443" y="160" type="line"/>
      <point x="1004" y="556" type="line"/>
      <point x="621" y="620" type="line"/>
    </contour>
    <contour>
      <point x="61" y="556" type="line"/>
      <point x="1004" y="556" type="line"/>
      <point x="1004" y="780" type="line"/>
      <point x="61" y="780" type="line"/>
    </contour>
    <contour>
      <point x="61" y="0" type="line"/>
      <point x="1004" y="0" type="line"/>
      <point x="1004" y="224" type="line"/>
      <point x="61" y="224" type="line"/>
    </contour>
  </outline>
</glyph>
